/* XPM */
static const char *Y29tcHRldXI_[] = {
/* columns rows colors chars-per-pixel */
"48 48 132 2 ",
"   c #170F1A",
".  c #171219",
"X  c #1A121C",
"o  c #21161F",
"O  c #24181F",
"+  c #1B1320",
"@  c #231721",
"#  c #251822",
"$  c #2C1C26",
"%  c #2E1D29",
"&  c #311F27",
"*  c #331F2A",
"=  c #342127",
"-  c #34202B",
";  c #3A232E",
":  c #3D2431",
">  c #3F2832",
",  c #40262F",
"<  c #44292E",
"1  c #412631",
"2  c #452933",
"3  c #4B2B35",
"4  c #4D2D38",
"5  c #502E36",
"6  c #522F38",
"7  c #4F3036",
"8  c #4F3038",
"9  c #523037",
"0  c #513039",
"q  c #503139",
"w  c #51303B",
"e  c #553238",
"r  c #553239",
"t  c #54303A",
"y  c #57323A",
"u  c #56333A",
"i  c #57343B",
"p  c #56323C",
"a  c #55323A",
"s  c #58333A",
"d  c #58333B",
"f  c #5C353A",
"g  c #5D363B",
"h  c #5B333C",
"j  c #59343C",
"k  c #5A353C",
"l  c #5A353D",
"z  c #5B363D",
"x  c #5C343D",
"c  c #5D353D",
"v  c #5D353E",
"b  c #5C343F",
"n  c #5E363E",
"m  c #5F373F",
"M  c #5C343D",
"N  c #5F383D",
"B  c #60373F",
"V  c #64373E",
"C  c #60373E",
"Z  c #62383C",
"A  c #61383E",
"S  c #63383F",
"D  c #62393F",
"F  c #66393E",
"G  c #643A3E",
"H  c #62383E",
"J  c #693C3F",
"K  c #603640",
"L  c #613840",
"P  c #623941",
"I  c #623842",
"U  c #643940",
"Y  c #653A41",
"T  c #643B41",
"R  c #643942",
"E  c #663B42",
"W  c #653C42",
"Q  c #633941",
"!  c #693A42",
"~  c #6A3B43",
"^  c #693C41",
"/  c #6B3D40",
"(  c #693C43",
")  c #6B3C42",
"_  c #6A3D42",
"`  c #6C3E41",
"'  c #6C3D43",
"]  c #6E3D43",
"[  c #6D3F42",
"{  c #6F3E42",
"}  c #683A44",
"|  c #6A3D44",
" . c #6A3C46",
".. c #6C3D45",
"X. c #6D3E44",
"o. c #6F3E44",
"O. c #6E3F45",
"+. c #6D3E46",
"@. c #6C3D43",
"#. c #703F43",
"$. c #713E45",
"%. c #703F45",
"&. c #703E47",
"*. c #723F46",
"=. c #703F45",
"-. c #713F48",
";. c #723F48",
":. c #6E4045",
">. c #714043",
",. c #714044",
"<. c #724144",
"1. c #734045",
"2. c #724145",
"3. c #704245",
"4. c #734245",
"5. c #714046",
"6. c #734047",
"7. c #734246",
"8. c #754046",
"9. c #744146",
"0. c #764147",
"q. c #754346",
"w. c #754247",
"e. c #724146",
"r. c #744148",
"t. c #754249",
"y. c #774248",
"u. c #764348",
"i. c #754248",
"p. c #794248",
"a. c #784349",
"s. c #79434A",
/* pixels */
"$ - ; 3 3 3 * * | 2.%.#.%.2.E 3 3 - - * 1 3 3 1 % 2 u.%.%.%.%.u.y 4 1 * * - 2 3 3 - % v 2.#.2.%.",
"% 3 | ` D 3 2 * _ 2.%.%.%.2._ 2 - - % v _ O.d 3 ; 1 9.%.` %.%.9.d : - * : _ _ ~ 3 3 * v u.%.%.%.",
"4 _ 2.2.%.L 3 2 6 O.9.-.9.D : ; * - v %.%.2._ d 2 3 k u.2.2.9.4 ; - - 1 ~ 2.2.>.E 4 2 8 E 9.-.9.",
"k u.#.%.2.#.3 3 2 6 d h y 1 * * - - u.2.%.%.9.v 2 3 3 y d v 5 - - - * 4 p.O.2.%.9.4 3 2 6 i v y ",
"4 _ 2.2.O.k v v v v 4 1 - * - - - - v %.%.9.E k v v v d 2 1 - - - - - 1 E 2.2.2.k v v v v 6 1 ; ",
"- 0 E v y d 2.2.2.9.E 1 * - - * * * : v E v y E u.2.2.%.y - - * - * * - 3 E L d p %.2.2.u.~ 3 * ",
"- ; 2 ; ; u.2.%.O.%.p.4 * * - ; ; ; * 1 1 % d u.%.%.%.O.2.- - * ; ; ; - - 1 1 * 2.2.%.O.%.9.k % ",
"1 - - * ; E ~ 2.2.2._ 2 * - ; 4 4 4 ; * * % 6 _ O.2.%.O.D - - - 2 4 4 2 - - * - D _ O.2.%.O.6 * ",
"4 1 * ; - * 3 _ | O.1 * * 1 0 4 3 3 4 ; - - * ; y O._ D * - * 3 0 3 3 4 2 * - - * 1 E _ O.4 % - ",
"3 3 3 4 3 - - * - - - - * 3 u._ 3 3 4 4 : ; * $ $ $ $ % - - * G u.y 3 4 4 3 4 3 - - * - - - - * ",
"2.g 3 3 4 3 - * 3 3 3 4 1 - ; y 2.` ` 3 X X . . . . X X 3 3 - * 2 L %.2.E 3 4 3 3 - * 1 3 3 3 2 ",
"3 4 3 3 3 3 * 2 3 3 3 3 3 1 * - ; $ . . . . . . . . . . X . ; ; - ; ; 1 4 3 3 3 4 - 1 3 3 3 3 3 ",
"y 2.v 2 3 3 - O.` 4 3 3 4 2 * o o X X X X X X X X X X X X X X o o - % 3 %.E 3 3 4 - L 2.y 2 3 3 ",
": 4 B ` L ; - 2 y W | O.5 * # X + X $ & ; ; $ @ # $ = ; ; ; . X X $ * ; 4 k _ } ; - 1 0 D _ O.v ",
"* - 1 4 3 * - * ; 2 3 3 1 $ X X . $ * ; 3 4 ; * * - 1 4 3 3 $ X X X # * * 1 4 4 - - * ; 2 3 3 2 ",
"- - * * * - - - % 3 4 4 & X X 2 : - - * * * * - * - - ; ; : 3 4 3 X X @ - * * % - - - * 1 5 4 0 ",
"* * - * * * - - 3 ` 9.$ < g 3 3 3 - - - - - - - - - 1 v k 4 3 3 3 2 ; @ X - * * * - * > E 9.u.9.",
"* * - : ; ; * * O.G - ; V 2.E 3 3 - * - - - - - * ; v u.2.4 4 3 3 4 1 $ @ @ - ; ; - % D 9.%.%.%.",
"- - 2 y 0 3 ; * | B $ _ 2.2.E 3 2 - - - - - - - * 2 u.%.E 3 3 3 4 3 : * - o 3 6 4 ; * B 2.#.%.2.",
"- y 9.2._ 4 4 - E %.O.%.%.2.B 1 * - - - - - - - - 1 :._ 4 4 5 3 3 ; * * 3 9.2.%.5 4 - v 2.O.%.%.",
"d u.O.%.%.` 3 3 3 ~ %.O.2.y % * - - - - - - - - * * - 4 2.:.2.1 - - * 3 9.:.2.%.%.4 4 2 B 2.O.%.",
"d u.#.%.%.` 3 $ - 3 4 4 1 - - - - - - 3 ; * - - - * - - - - - - - - * 3 a.%.2.3 1 4 3 3 3 4 4 2 ",
"1 L u.2._ 4 ` @ @ d y ; - - - - - - - - 2 4 ; * * - - - - - - - - - * ; v 9.y o o ~ ` O.O.k 1 - ",
"- 2 y 4 2 ` %.$ X o B 3 * * - - * - - - ; ; - - - - - - - - - - * * * * ; 3 X X $ %.2.%.2.%.6 * ",
"; - : - : p.2.$ X . . 2 * * ; 3 2 2 * - - - - - - - - - * - - - 1 2 3 ; % . . X * 9.%.%.%.u.v % ",
"2 ; $ $ - 7 9.` ; X . . $ - 1 3 4 4 1 - * * - - * - - - * - - ; 3 4 4 ; X . X O 2 d 2.9.u.D 1 * ",
"3 4 9 6 3 % 9 9 3 $ . X X $ , v 3 3 3 1 1 1 ; * - - * * * * - k L - $ @ X . # ; % ; 4 6 9 1 % * ",
"d E u.9.` 2 % $ ; * . . . X . 3 3 9 v 4 4 4 2 ; * ; : : ; ; % < 3 . X . . . 3 3 : - % - ; ; ; ; ",
"` 2.%.%.%.#.* ; 3 1 . X . . . . X - | 3 2 3 3 ; * ; 3 3 3 4 O X . . . . . . 1 3 3 - - 2 4 4 3 3 ",
"p 9.%.%.%._ - # X @ 2 3 $ X . . . . X X X X X X X X X X X X   . . . X # 6 3 o X $ - 4 y 4 3 3 4 ",
"y 2.%.%.%.G - 0 3 1 4 4 % X X . . . X . . . . . . X . . . . . . X X X $ 2.~ ; ; ; - D 2.v 4 4 4 ",
"% 5 2.%.L % * * 2 ~ %.9 X . # @ . . . X . . . . . . . . . . . . @ @ . X $ 0 2.` - * - 1 L 2.:.v ",
"- - - ; - - - - - - * X . % 3 2 X . X X X X . X X . . X X X . $ 4 ; @ . X * - - - - - - - - * ; ",
"* - - - - - - - % v _ ~ _ B 3 3 @ @ - * - @ X - - X @ O.W J * O 3 3 : * - - - - - - - % 6 O._ _ ",
"* - - - * * - * L O.2.2.2.O.h o X @ - - * o X - * X ; 2.2.2.- X @ 3 1 - - - - * * - * y O.2.2.%.",
"- * * 1 2 1 * * ` %.%.#.O.2.D $ % $ - % $ . @ : % o . 3 %.%.y ; - 3 1 * * * 2 1 2 - * N u.%.%.%.",
"% 1 v E v 2 1 - _ 2.%.O.%.2._ 3 ; - % y $ @ - 2 - $ @ - %.%.O.9.d 1 ; * ; v D D 3 1 * K u.O.O.%.",
"2 E u.2.O.d 4 1 d O.2.2.9.~ 3 ; * - 9 %.2.9.E y 2 2 E 2.2.%.9.i 1 - * , v 9.2.2.v 4 1 6 _ 2.2.9.",
"v a.%.%.2.%.3 3 2 v L L B 2 % * - - u.%.2.%.9.v 3 3 3 B L L k - * - * 4 p.%.%.2.9.4 3 2 y D L L ",
"9 O.2.%.%.D y y y y 3 2 ; * - - - - E #.%.2.| v p y y 6 3 1 * * - - * 2 O.2.:.%.E y y y y 4 2 ; ",
": d O._ B 5 2.2.2.9.v ; - * - - - - 1 E | E y v 9.2.2.%.6 - - - - - * ; 6 O._ L 4 O.2.2.9.D 1 * ",
"* ; 3 1 : u.%.%.%.O.9.4 * - - - - - * 2 3 * i 9.%.O.O.%.%.- - - - - - * - 3 2 * %.2.%.%.%.9.k % ",
": * - * : 2.O.%.%.#.2.3 & * ; 4 4 3 - - - * y 2.%.%.%.%.O.- - * 2 4 4 1 * - - - O.O.%.%.#.2.d $ ",
"4 1 - * - ; 4 %.2.u.2 * * ; 3 3 3 3 3 - * - * 1 v u.2.` * - * 2 3 3 3 4 2 * - - - 3 _ 2.9.6 * - ",
"3 3 3 3 2 * - ; - ; - * * 3 9.E 3 3 3 3 3 3 ; * ; ; - ; * * * E u.y 2 3 3 3 3 3 * - ; ; ; - * - ",
"` v 3 4 3 2 - * 2 2 3 3 ; - 2 h O.` O.4 3 4 3 ; * - 3 2 3 3 - ; 4 E O.O.L 3 3 3 3 - * 1 3 3 3 1 ",
"4 4 3 3 4 3 - 1 3 3 4 4 3 ; * ; 2 2 6 3 3 3 4 1 ; 2 3 4 3 4 2 - - 1 2 4 6 3 3 3 4 - 1 3 3 4 4 3 ",
"5 ~ d 2 3 3 - E E 4 3 2 4 2 * * * * L E 4 3 4 : 3 | v 2 3 3 4 ; * * % 2 ~ v 3 3 4 - v ~ 6 3 3 3 "
};
