/* XPM */
static const char *c29ydGll[] = {
/* columns rows colors chars-per-pixel */
"48 48 182 2 ",
"   c #040416",
".  c #090615",
"X  c #040A16",
"o  c #0D0C15",
"O  c #0A0718",
"+  c #050A19",
"@  c #0C0C19",
"#  c #120E15",
"$  c #1B0F15",
"%  c #110D1A",
"&  c #0F1015",
"*  c #161114",
"=  c #191313",
"-  c #15111A",
";  c #1B121B",
":  c #210D18",
">  c #24141B",
",  c #2A151A",
"<  c #231C1A",
"1  c #2B1A1C",
"2  c #31151B",
"3  c #331B1D",
"4  c #3C1A1D",
"5  c #2B221C",
"6  c #32231C",
"7  c #3C221F",
"8  c #372A1D",
"9  c #371D20",
"0  c #2B2120",
"q  c #3E2020",
"w  c #342A21",
"e  c #47161C",
"r  c #411F1D",
"t  c #43201F",
"y  c #48221F",
"u  c #53241F",
"i  c #4A3C1F",
"p  c #422720",
"a  c #4D2421",
"s  c #432821",
"d  c #4C2F21",
"f  c #522721",
"g  c #5D2120",
"h  c #562B22",
"j  c #5C2921",
"k  c #473022",
"l  c #4C3421",
"z  c #4D3921",
"x  c #5E3422",
"c  c #533B23",
"v  c #622322",
"b  c #662D22",
"n  c #7C2921",
"m  c #6E3025",
"M  c #613824",
"N  c #6E3E24",
"B  c #743223",
"V  c #7D3223",
"C  c #7A3B25",
"Z  c #5D4921",
"A  c #644B25",
"S  c #6A5225",
"D  c #685229",
"F  c #735727",
"G  c #7A6428",
"H  c #872F25",
"J  c #8D2F23",
"K  c #893424",
"L  c #833924",
"P  c #8D3A24",
"I  c #853723",
"U  c #923424",
"Y  c #943A25",
"T  c #9A3D25",
"R  c #983425",
"E  c #AC3D26",
"W  c #B13F25",
"Q  c #8E4426",
"!  c #874D27",
"~  c #9A4328",
"^  c #8B5028",
"/  c #8B5D29",
"(  c #9C5C29",
")  c #A54326",
"_  c #AE4226",
"`  c #AD4528",
"'  c #AC4A28",
"]  c #B14227",
"[  c #BF4627",
"{  c #B74A27",
"}  c #BB4927",
"|  c #B84528",
" . c #B74928",
".. c #BC4B29",
"X. c #A25529",
"o. c #B75629",
"O. c #B85329",
"+. c #BD582C",
"@. c #866927",
"#. c #846429",
"$. c #8D6B2A",
"%. c #856125",
"&. c #99672A",
"*. c #946B2B",
"=. c #8E732C",
"-. c #9C732B",
";. c #A16D2A",
":. c #A3622A",
">. c #B36A2C",
",. c #A6762A",
"<. c #A57E2E",
"1. c #AF7C2D",
"2. c #BA782C",
"3. c #B6712B",
"4. c #C64727",
"5. c #C14B27",
"6. c #C54528",
"7. c #C34D29",
"8. c #CD4F2A",
"9. c #C6552A",
"0. c #CA5429",
"q. c #CC5C2B",
"w. c #D4552A",
"e. c #D55A2C",
"r. c #DB582C",
"t. c #CE6F2D",
"y. c #D0662C",
"u. c #D66C2C",
"i. c #DD6D2D",
"p. c #DD612D",
"a. c #C4702A",
"s. c #CD752E",
"d. c #D6722D",
"f. c #D9742D",
"g. c #DC7A2E",
"h. c #D07A2D",
"j. c #D97430",
"k. c #E0692B",
"l. c #E47A2E",
"z. c #E9792F",
"x. c #E67A31",
"c. c #A7812C",
"v. c #AA852D",
"b. c #BA892E",
"n. c #C68E2F",
"m. c #D48E2F",
"M. c #D5832F",
"N. c #CD9A2F",
"B. c #CA932F",
"V. c #C99130",
"C. c #C89E30",
"Z. c #D19E31",
"A. c #E3832E",
"S. c #E18230",
"D. c #E58D32",
"F. c #EC8930",
"G. c #F58931",
"H. c #E69532",
"J. c #E99531",
"K. c #FA9332",
"L. c #F29C32",
"P. c #D0A031",
"I. c #DDA633",
"U. c #E1A834",
"Y. c #E8AE31",
"T. c #F5A433",
"R. c #FFA534",
"E. c #F6AC35",
"W. c #FDAB34",
"Q. c #EEB935",
"!. c #EEB134",
"~. c #FAB234",
"^. c #FBB535",
"/. c #FFBB36",
"(. c #FDBC36",
"). c #F2B634",
"_. c #F6C133",
"`. c #FFC637",
"'. c #FEC336",
"]. c #FFC138",
"[. c #FFCC39",
"{. c #FFD439",
/* pixels */
"= = = = = = = = = = = = = = = = = = = = = = = = = = = = = = = = = = = = = = = = = = = = = = = = ",
"= = = = = = = = = = = = = = = = = = = = = = = = = = = = = = = = = = = = = = = = = = = = = = = = ",
"= = = = = = = = = = = = = = = = = = = = = = = = = = = = = = = = = = = = = = = = = = = = = = = = ",
"= = = = = = = = = = = = = = = = = = = = = = = = = = = = = = = = = = = = = = = = = = = = = = = = ",
"= = = = = = = = = = = = = = = = = = = = = = = = = = = = o * = = = = = = = = = = = = = = = = = = ",
"= = = = = = = = = = = = = = = = = = = = = = = = = = = = t 3 * = = = = = = = = = = = = = = = = = ",
"= = = = = = = = = = = = = = = * * = = = = = = = = = * - } B @ = = = = = = = = = = = = = = = = = ",
"= = = = = = = = = = = = = = = % # = = = = = = = = = * %  .B @ = = = = = = = = = = = = = = = = = ",
"= = = = = = = = = = = = = * * B j o = = = = = * = * 1 P j 1 * * = = = = = = = = = = = = = = = = ",
"= = = = = = = = = = = = = = % `  .y # * = = = % * o 9 8.1 # * @ = = = = = = = = = = = = = = = = ",
"= = = = = = = = = = * * = = # V 8. .3 ; * = ; 3 = * f 9.f = = 3 = = = = = = = = = = = = = = = = ",
"= = = = = = = = = = - - = = = @ b w.7.3 # * > 5.t u e.f.e.u r 7.> # = = = = = = = = = = = = = = ",
"= = = = = = = = * * T j o = = . M k.7.1 # = = , V | 0.9.u.O.] ..- * # . = = = = = = = = = = = = ",
"= = = = = = = = * ; 8.m o = * u >.L.q.K 2 o * g s.l.[ 5.J.A.e.q.L $ i $.o = = = = = = = = = = = ",
"= = = = = = = = * - I B 3 # @ R G.'.D.z.( z j i.].L.6.9.^.E.A.d.w.v -.(.a $ = = = = = = = = = = ",
"= = = = = = = = = = X P ) - - Y F.`.(.`.`.H.7.!._.M.} g.^.`.E.d.7.4.A.~.0.t * * ; = = = = = = = ",
"= = = = = = = = = = + ! i.W ] H.[./.A.`.$.; , 5 5 ; l ].[.L.F.~.7.q.f.g.u.9.u   - = = = = = = = ",
"= = = = = = = = * - B +.F.T.w.^.C.c h A 6 # * # # # < A A d / {.W.E.D.f.E.w.s.=.% * = = = = = = ",
"= = = = = = = = * - E l.L.J.L ;.Z . o . # = = = = = = o o . 8 <.<.Q./.J.T.S.K.2.@ * = = = = = = ",
"= = = = = = = = * - ' W.T.U *   o = = = = = = = = = = = = = #     -.(.E.d.(.F.J % = = = = = = = ",
"= = = = = = = = # - I.{.b.@ = = = = = = = = = = = = = = = = = = = @ N x.j./.F.U % = = = = = = = ",
"= = = = = = = # 3 ) k.^ 5 * = = = = = = = = = = = = = = = = = = = * ; x l.(.*.: * = = = = = = = ",
"= = = = = = = o q 8.V , # = = = = = = = = = = = = = = = * = = = = = * = N (.G . = = = = = = = = ",
"= = = = = = = o 7 q.1 o = = = = = = = = = = = = = = = = = = = = = = = * O m.:., * = = = = = = = ",
"= = = = = = = o s f.7 o = = = = = = = = = = = = = = = = = = = = = = = * - T r.~ - = = = = = = = ",
"= = = = = = = o p d.7 o = = = = = = = = = = = = = = = = = = = = = = = = = % 1.B.o * = = = = = = ",
"= = = = = = = o l E.w o = = = = = = = = = = = = = = = = = = = = = = = = =   c.Z.o * = = = = = = ",
"= = = = = = = o k L.C > # = = = = = = = = = = = = = = = = = = = = = # # =   <.Z.@ * = = = = = = ",
"= = = = = = = # 2 E p.C ; = = = = = = = = = = = = = = = = = = = = * 0 8 = < b.V.@ * = = = = = = ",
"= = = = = = = = # - I.G.K @ = = = = = = = = = = = = = = = = = = = . #.U.- P.R.X.% * = = = = = = ",
"* = = = = = = = # ; Q.K.H X = & @ - = = = - = = = = = = = = = - = . #.Y.@ h.( > * = = = = = = = ",
"= = = = = = = = * = S a.9.v o j a X = o # = = = = * o = = = = ; @ e 3.).V C 6 # = = = = = = = = ",
"= = = = = = = = = = o x t.i.f _ T 2 * 4 , = = = * , 4 * = = * - 4 o.R.^.) > # = = = = = = = = = ",
"= = = = = = = = = = = o Z /.9.5.e.' ;  .B - = = # B ..; * = * 1 ..L.[.N.- * = = = = = = = = = = ",
"= = = = = = = = = = = = = 6 > n.[.T.] y.q.V + O n l.E.] ,   4 0.(.F < 1 * = = = = = = = = = = = ",
"= = = = = = = = = = = = * o # i D %.W./.K.q.Y Y A.'.[.W.' 3.,.h D 5 # # = = = = = = = = = = = = ",
"= = = = = = = = = = = = = = = o . < v.v.&.Q P P ;.v.<.v.Q >.@.. . * = = = = = = = = = = = = = = ",
"= = = = = = = = = = = = = = = = = * O . @ @ @ @ o . O O o o o = = = = = = = = = = = = = = = = = ",
"= = = = = = = = = = = = = = = = = = = = = = = = = = = = = = = = = = = = = = = = = = = = = = = = ",
"= = = = = = = = = = = = = = = = = = = = = = = = = = = = = = = = = = = = = = = = = = = = = = = = ",
"= = = = = = = = = = = = = = = = = = = = = = = = = = = = = = = = = = = = = = = = = = = = = = = = ",
"= = = = = = = = = = = = = = = = = = = = = = = = = = = = = = = = = = = = = = = = = = = = = = = = ",
"= = = = = = = = = = = = = = = = = = = = = = = = = = = = = = = = = = = = = = = = = = = = = = = = ",
"= = = = = = = = = = = = = = = = = = = = = = = = = = = = = = = = = = = = = = = = = = = = = = = = ",
"= = = = = = = = = = = = = = = = = = = = = = = = = = = = = = = = = = = = = = = = = = = = = = = = ",
"= = = = = = = = = = = = = = = = = = = = = = = = = = = = = = = = = = = = = = = = = = = = = = = = ",
"= = = = = = = = = = = = = = = = = = = = = = = = = = = = = = = = = = = = = = = = = = = = = = = = ",
"= = = = = = = = = = = = = = = = = = = = = = = = = = = = = = = = = = = = = = = = = = = = = = = = "
};
