/* XPM */
static const char *Z29sZA__[] = {
/* columns rows colors chars-per-pixel */
"48 48 68 1 ",
"  c #171310",
". c #171312",
"X c #171314",
"o c #181310",
"O c #181212",
"+ c #191313",
"@ c #1B1213",
"# c #181411",
"$ c #191411",
"% c #181413",
"& c #1A1512",
"* c #191315",
"= c #1C1314",
"- c #1A1414",
"; c #1A1416",
": c #141118",
"> c #161118",
", c #151219",
"< c #171218",
"1 c #171219",
"2 c #16101A",
"3 c #17111B",
"4 c #15121B",
"5 c #181119",
"6 c #18101B",
"7 c #18131A",
"8 c #18121C",
"9 c #B0572F",
"0 c #AF5530",
"q c #AF5731",
"w c #B05631",
"e c #B25631",
"r c #B05633",
"t c #9E6037",
"y c #9F6236",
"u c #9F6138",
"i c #9E6039",
"p c #9D6238",
"a c #9F613A",
"s c #A16237",
"d c #A06337",
"f c #A06138",
"g c #A06239",
"h c #A16239",
"j c #F1A633",
"k c #F2A732",
"l c #F0A734",
"z c #F3A634",
"x c #F2A734",
"c c #F2A636",
"v c #F3A737",
"b c #F3A833",
"n c #F3A835",
"m c #FEE330",
"M c #FFE232",
"N c #FEE332",
"B c #FFE333",
"V c #FFE431",
"C c #FFE532",
"Z c #FFE433",
"A c #FEE533",
"S c #FEE334",
"D c #FFE434",
"F c #FFE534",
"G c #FFE435",
"H c #FEFAD4",
"J c #FEFAD5",
"K c #FFFBD6",
/* pixels */
"++++++++++++++++++++++++++++++++++++++++++++++++",
"++++++++++++++++++++++++++++++++++++++++++++++++",
"++++++++++++++++++++++++++++++++++++++++++++++++",
"++++++++++++++++++++++++++++++++++++++++++++++++",
"++++++++++++++++++++++++$+$+++++++++++++++++++++",
"++++++++++++++++++++++++$+++++++++++++++++++++++",
"++++++++++++++++++++++++*++$++++++++++++++++++++",
"++++++++++++++++++++++++111111X ++++++++++++++++",
"+++++++++++++++++++++++1ZZZZBx11111$$-+*++$+*$--",
"++++++++++++++++++++++$1ZZZZBx11511+$++++$++++++",
"+++++++++++++++++++++11GZZGZZZZZZxx1111*++++$+++",
"++++++++++++++++++$+1ZZZZGBZZZBZZZGZZZb11+++++++",
"++++++++++++++++$++*1BZZZZZZZZZZZZZZZZx15+++++++",
"+++++++++++++++++++1ZZZZZZZZZZSZZGZGZZw11+++++++",
"+++++++++++++++++11ZZZBZGZZZZZZZZZBZwwuuu1$+++++",
"+++++++++++++++++11ZZZZZBZGZZZBZZZZZ0wuuu5$+++++",
"++++++++++++++-+1ZGZZZZZZZZZGGBZZZZwyfuuu1++-$++",
"++++++++*++++-81ZZZZBZZZGZZZZZZZZwwfuusuyu15++++",
"+++++++++$$+++11GZZZZZZZBZZZZZZZZwwuuuuuuu11++++",
"+++++++++++++1ZZZZZZZZZGZZZZZZZZwuuuuuufuf11++++",
"+++++++++++11ZZZBBZZZZZBZZZZZZ0wuuuuuuuuy1*$++++",
"++++++++ ++11ZZZZZZZZZZZBZBZZZwwfufuuufuu1+$++=+",
"+++++++++$1ZZGBZZZZZZZZZZZZZGwuuuuuuuuu11+$+++++",
"++++++++11ZZZZZZGZZBBZZBZZZwwuuyuuyuuu1+++++++++",
"++$++++$11ZZZZZZZZBZZZZBZZZwwuuyuuuusf1+++++++++",
"+++++++1JJJJJZZZZZZZZZBZZZwuuuuuuuuy11++++++++++",
"+++++++1xxxxkJJJJZZZZZZZwwufuufuuuu1+$-+++++++++",
"+++++++1xxxxxJJJJZZZZZZZ09uuufuuyuu1++++++++++++",
"+++++11kxnxxxxxxxJJJJJJwuuuuuuuuu11++$++++++++++",
"+++++11xxxxxxxxxxxxxxw0uuuuuuuuu1+*+++++++++++++",
"++-++11kxxxxkkxxxxxxxwwufuuuuuuu1++++*+$++++++++",
"+++++11xnxxxxxxxxxxkxwwufuuuuu11*+++++++++++++++",
"$++$+11xxxxxxxxxxxxxkwwuuuuyu1++++++++++++++++++",
"+++++++1111kxxxxkkxxxxxwuuu11+++++++++++++++++++",
"+++++++1111xxxxkxxxxxxxwfuf11++$++++++++++++++++",
"++++++++++*15111xnxxxxxwuu1+++++++++++++++++++++",
"+++$+++$++++++++1115xxxw11++$+++++++++++++++++++",
"*+$+$++++++++++$1111xxxw11+++$++++++++++++++++++",
"++++++++++-+++*+-+++1151+++++++=++++++++++++++++",
"++++++*++++++++++++ +++-++++++++++++++++++++++++",
"++++++++++++++++++++++++++++++++++++++++++++++++",
"++++++++++++++++++++++++++++++++++++++++++++++++",
"++++++++++++++++++++++++++++++++++++++++++++++++",
"++++++++++++++++++++++++++++++++++++++++++++++++",
"++++++++++++++++++++++++++++++++++++++++++++++++",
"++++++++++++++++++++++++++++++++++++++++++++++++",
"++++++++++++++++++++++++++++++++++++++++++++++++",
"++++++++++++++++++++++++++++++++++++++++++++++++"
};
