/* XPM */
static const char *Ym9uMQ__[] = {
/* columns rows colors chars-per-pixel */
"48 48 203 2 ",
"   c #010102",
".  c #0A0907",
"X  c #05050B",
"o  c #090709",
"O  c #06080E",
"+  c #0C0B0C",
"@  c #110D0D",
"#  c #14100F",
"$  c #050512",
"%  c #090714",
"&  c #0B0A13",
"*  c #0C0C1B",
"=  c #070A13",
"-  c #110E13",
";  c #110F1C",
":  c #0F1015",
">  c #151212",
",  c #191313",
"<  c #14121A",
"1  c #1A1A1B",
"2  c #201E1F",
"3  c #0F1022",
"4  c #121323",
"5  c #1A1623",
"6  c #1C1A22",
"7  c #121528",
"8  c #1C1D2B",
"9  c #15182B",
"0  c #181C36",
"q  c #241F2E",
"w  c #1F2128",
"e  c #1D223C",
"r  c #222220",
"t  c #32232A",
"y  c #222432",
"u  c #23253C",
"i  c #2D2B3C",
"p  c #2A2C36",
"a  c #2E303F",
"s  c #2C3135",
"d  c #33353C",
"f  c #393738",
"g  c #3A3A3A",
"h  c #343538",
"j  c #463629",
"k  c #222742",
"l  c #232942",
"z  c #282D49",
"x  c #2D2E40",
"c  c #2D3244",
"v  c #2A304C",
"b  c #343443",
"n  c #353E42",
"m  c #383F47",
"M  c #3B3A48",
"N  c #353349",
"B  c #2D3657",
"V  c #333655",
"C  c #313959",
"Z  c #343E61",
"A  c #403C4D",
"S  c #3B4247",
"D  c #3C454C",
"F  c #3F494F",
"G  c #3E4B51",
"H  c #3F4159",
"J  c #3D466B",
"K  c #3B4667",
"L  c #3F4B74",
"P  c #48484B",
"I  c #5B5145",
"U  c #454553",
"Y  c #444D53",
"T  c #424058",
"R  c #424F5B",
"E  c #4E4F54",
"W  c #514F5D",
"Q  c #475159",
"!  c #4A525B",
"~  c #465157",
"^  c #56575A",
"/  c #5A5A5B",
"(  c #515151",
")  c #5A4743",
"_  c #434D6A",
"`  c #4D5B64",
"'  c #4D5A6B",
"]  c #495666",
"[  c #555C65",
"{  c #525F69",
"}  c #5D5F6B",
"|  c #5A5863",
" . c #414E74",
".. c #434F79",
"X. c #455175",
"o. c #4A5272",
"O. c #4D597D",
"+. c #46527A",
"@. c #555D7D",
"#. c #615B65",
"$. c #54626B",
"%. c #5E626E",
"&. c #5E6276",
"*. c #5B6674",
"=. c #666264",
"-. c #64626A",
";. c #6C6B6C",
":. c #69676C",
">. c #626571",
",. c #626B73",
"<. c #696C79",
"1. c #686B7B",
"2. c #6C737D",
"3. c #6F787F",
"4. c #727375",
"5. c #525E82",
"6. c #5A6586",
"7. c #556288",
"8. c #5E6A8C",
"9. c #5A6687",
"0. c #5F6D92",
"q. c #656D83",
"w. c #636E8C",
"e. c #646A86",
"r. c #6A7182",
"t. c #66718E",
"y. c #6E748B",
"u. c #6F7983",
"i. c #767583",
"p. c #717C84",
"a. c #737C8B",
"s. c #777889",
"d. c #646E91",
"f. c #677592",
"g. c #6F7D9A",
"h. c #7F7E90",
"j. c #747891",
"k. c #807E83",
"l. c #79818A",
"z. c #7A8293",
"x. c #7F8992",
"c. c #7A819D",
"v. c #85858B",
"b. c #838B96",
"n. c #87889C",
"m. c #8C949D",
"M. c #8F989F",
"N. c #87919D",
"B. c #9A9498",
"V. c #979296",
"C. c #8C91A6",
"Z. c #8A96AE",
"A. c #919BA3",
"S. c #9899A3",
"D. c #959AB3",
"F. c #858BA5",
"G. c #9FA0A4",
"H. c #9FA1B0",
"J. c #A4A4AC",
"K. c #ABA9AC",
"L. c #AAAEB4",
"P. c #A6AABB",
"I. c #AAACBD",
"U. c #A3AAB6",
"Y. c #B0AEB1",
"T. c #BAB8BB",
"R. c #B3B3B5",
"E. c #9FA2C1",
"W. c #ABAEC1",
"Q. c #ADB0C3",
"!. c #B3B6C1",
"~. c #B5B9C2",
"^. c #BCBDC2",
"/. c #B7BCCB",
"(. c #B9BBCD",
"). c #BBBBDE",
"_. c #BCBFD0",
"`. c #BEC1C8",
"'. c #C5C9CF",
"]. c #C1C0C8",
"[. c #C0C1DF",
"{. c #C7C9D8",
"}. c #CCCFD6",
"|. c #CFD2D9",
" X c #D1D3DC",
".X c #D5D9DD",
"XX c #D3D6E1",
"oX c #DBDBE5",
"OX c #E0DEE9",
"+X c #E3E3ED",
"@X c #E9EAEF",
"#X c #E3E3F0",
"$X c #ECEDF3",
"%X c #E6E9F0",
"&X c #EFF0F5",
"*X c #F6F6F7",
"=X c #F6F5FA",
"-X c #F3F3F8",
";X c white",
":X c #FEFEFE",
">X c #FDFEFE",
",X c #FAFAFA",
"<X c #F8F9F5",
/* pixels */
", , , , , , , , , , , , , , , , , , , , , , , , , , , , , , , , , , , , , , , , , , , , , , , , ",
", , , , , , , , , , , , , , , , , , , , , , , , , , , , , , , , , , , , , , , , , , , , , , , , ",
", , , , , , , , , , , , , , , , , , , , , , , , , , , , , , , , , , , , , , , , , , , , , , , , ",
", , , , , , , , , , , , , , , , , , , , , , , , , , , , , , , , , , , , , , , , , , , , , , , , ",
", , , , , , , , , , , , , , , , , , , , , , , , , , , , , , , , , , , , , , , , , , , , , , , , ",
", , , , , , , , , , , , , , , , , , , , , , , , , , , , , , , , , , , , , , , , , , , , , , , , ",
", , , , , , , , , , , , , , , , , , , , , , , , , , , , , , , , , , , , , , , , , , , , , , , , ",
", , , , , , , , , , , , , , , , , , , , , , , , , , , , , , , , , , , , , , , , , , , , , , , , ",
", , , , , , , , , , , , , , , , , , , , , , , , , , , , , , , , , , , , , , , , , , , , , , , , ",
", , , , , , , , , , , , , , , , , , , , , , , , , , , , , , , , , , , , , , , , , , , , , , , , ",
", , , , , , , , , , , , , , , , , , , , , , , , , , , , , , , , , , , , , , , , , , , , , , , , ",
", , , , , , , , , , , , , , , , , , , , , , , , , , , , , , , , , , , , , , , , , , , , , , , , ",
", , , , , , , , , , , , , , , , , , , , , , , , , , , , , , , , , , , , , , , , , , , , , , , , ",
", , , , , , , , , , , , , , , , , , , , , , , , , , , , , , , , , , , , , , , , , , , , , , , , ",
", , , , , , , , , , , , , , , , , , , , , , , , , , , , , , , , , , , , , , , , , , , , , , , , ",
", , , , , , , , , , , , , , , , < * @ , @ @ @ + @ @ @ @ @ @ @ @ @ @ , , , , , , , , , , , , , , ",
", , , , , , , , , , , , , , , # u V A -.v.K.K.K.K.K.K.K.K.K.K.K.K.J.i.N < # , , , , , , , , , , ",
", , , , > > @ - - - & - 8 q y U &.&.&.b..X;X;X;X;X;X;X;X;X;X;X;X;X;XOXn.s.| b y * @ @ , , , , , ",
", , , < y c c V v v z l Z K @.a.2.*.*.p..X,X*X*X*X*X*X*X*X*X*X*X*X*X,XU.N.P.P.C.y.>.U 6 , , , , ",
", , > u X.5.O.O._ K _ w.f.9.D.2.` $.$.l..X,X*X*X*X*X*X*X*X*X*X*X*X,X*XM.S W.$X-X&X$XW.H - , , , ",
", , 5 q.Z.z.a.y.1.<.2.(./.W.{.a.` $.$.p..X,X*X*X*X*X*X*X*X*X*X*X*X*X*Xm.G I.+X$X$X-XoXr.% , , , ",
", , W ].,X;X;X;X;X>X;X-X-X-X-Xx.` *.{ p..X,X*X*X*X*X*X*X*X*X*X*X-X<X*XA.G I.+X$X$X-X X1.% , , , ",
", , #. X;X-X*X*X*X-X-X-X-X-X$Xb.` $.` p..X<X*X*X*X*X*X*X*X*X*X*X*X*X-Xm.F I.#X$X$X-X Xq.* , , , ",
", , #. X;X*X*X*X*X-X-X-X-X-X$XN.` [ $.l.XX$X$X$X-X$X$X$X$X@X$X-X$X$X$Xa.R Q.+X$X$X-X Xy.0 > , , ",
", , #. X;X-X*X*X*X*X*X-X-X-X-Xb.` { x.L.` ' ' ] !.a.' ' ' R z. Xp.` ~.$XP.(.+X$X$X-X Xy.e > , , ",
", , x I.+X X|. X XXX[.).).E.W.u.{ A.L.[ Q ! Q Y !.3.Q Q ! Y ,.~.^.D ,.+X$X#X$X-X-X-X Xy.e # , , ",
", , i w.g.t.w.w.t.f.d.8.9.@.F.r.m.'.m.F Q ! Q G !.p.Q Y ! Y ~ b.oXQ D `.$X$XD.c.W. X(.j.e # , , ",
", , 8 o.0.8.8.7.+.X.X.X. .J c./.P.r.Y S D D S s ~.:.g d n m n 2.%X}.'.$X;X_.9. .5.8.6.X.u # , , ",
", , & H e.7.7.5.+...L J J K o.h.q._ | %.%.>.<.>.v.<.} } %.>.<.i.S.H.J.I.C.8.X. ...L ! I k # , , ",
", , O 8 N C C C z k e k u k e w u c d b d ^ S.G.E b M M M 4.J.l.p b b a l k v C B T ) j 0 # , , ",
", , & * 7 9 7 * & 6 : O O * 3 $ * * X     1 ^ / w   $ $ o h -.P   X = < & O * 4 7 q t 5 4 > , , ",
", , - < < & $ < P ;./ s   O & O O o X               O %       $ & 2 P ;.( r X X & * * 4 - , , , ",
", , , @ X O & g Y.T.T.v.+ $ X                               X % ; / R.R.^.4.<     o & - > , , , ",
", , , , @ o O g B.B.B.k.+ & & o . o o o o o o o o o . o o o o X & P V.B.B.;.1 X o o # , , , , , ",
", , , , , , @ O h :.=.+ @ # , , , , , , , , , , , , , , , , , > @ o f =.#.+ @ , , , , , , , , , ",
", , , , , , , > + o . @ , , , , , , , , , , , , , , , , , , , , , # . . o @ , , , , , , , , , , ",
", , , , , , , , , , , , , , , , , , , , , , , , , , , , , , , , , , , , , , , , , , , , , , , , ",
", , , , , , , , , , , , , , , , , , , , , , , , , , , , , , , , , , , , , , , , , , , , , , , , ",
", , , , , , , , , , , , , , , , , , , , , , , , , , , , , , , , , , , , , , , , , , , , , , , , ",
", , , , , , , , , , , , , , , , , , , , , , , , , , , , , , , , , , , , , , , , , , , , , , , , ",
", , , , , , , , , , , , , , , , , , , , , , , , , , , , , , , , , , , , , , , , , , , , , , , , ",
", , , , , , , , , , , , , , , , , , , , , , , , , , , , , , , , , , , , , , , , , , , , , , , , ",
", , , , , , , , , , , , , , , , , , , , , , , , , , , , , , , , , , , , , , , , , , , , , , , , ",
", , , , , , , , , , , , , , , , , , , , , , , , , , , , , , , , , , , , , , , , , , , , , , , , ",
", , , , , , , , , , , , , , , , , , , , , , , , , , , , , , , , , , , , , , , , , , , , , , , , ",
", , , , , , , , , , , , , , , , , , , , , , , , , , , , , , , , , , , , , , , , , , , , , , , , ",
", , , , , , , , , , , , , , , , , , , , , , , , , , , , , , , , , , , , , , , , , , , , , , , , ",
", , , , , , , , , , , , , , , , , , , , , , , , , , , , , , , , , , , , , , , , , , , , , , , , "
};
