/* XPM */
static const char *Ym9uKzI_[] = {
/* columns rows colors chars-per-pixel */
"48 48 190 2 ",
"   c #020202",
".  c #05040A",
"X  c #09070C",
"o  c #07080D",
"O  c #0A090A",
"+  c #120E0E",
"@  c #16120F",
"#  c #080715",
"$  c #060910",
"%  c #0A0A13",
"&  c #0C0D1B",
"*  c #130F12",
"=  c #100F1D",
"-  c #0E101D",
";  c #161212",
":  c #191313",
">  c #161817",
",  c #11101E",
"<  c #1D181E",
"1  c #201011",
"2  c #0E0F21",
"3  c #121223",
"4  c #1F1F21",
"5  c #141629",
"6  c #16192D",
"7  c #1B1725",
"8  c #161A33",
"9  c #1B1D34",
"0  c #1D1E3C",
"q  c #201E29",
"w  c #2C1F29",
"e  c #211C32",
"r  c #1B2036",
"t  c #1E223B",
"y  c #262628",
"u  c #282929",
"i  c #302C2D",
"p  c #202336",
"a  c #2A2637",
"s  c #22263F",
"d  c #2D2B30",
"f  c #312F32",
"g  c #302C3B",
"h  c #37353A",
"j  c #1E2140",
"k  c #222641",
"l  c #262A45",
"z  c #282D4A",
"x  c #2F2C41",
"c  c #373040",
"v  c #3A3549",
"b  c #2E3554",
"n  c #333A59",
"m  c #333A56",
"M  c #453E4E",
"N  c #3A4147",
"B  c #3C444B",
"V  c #3F484F",
"C  c #3D415C",
"Z  c #374061",
"A  c #3A4166",
"S  c #3B4868",
"D  c #3D476B",
"F  c #454648",
"G  c #434C53",
"H  c #464F58",
"J  c #4D4E53",
"K  c #544F53",
"L  c #475057",
"P  c #46525B",
"I  c #4B555D",
"U  c #525154",
"Y  c #5B595B",
"T  c #424B6D",
"R  c #465363",
"E  c #495663",
"W  c #515E69",
"Q  c #5C5F68",
"!  c #575A6A",
"~  c #424C72",
"^  c #465275",
"/  c #4A5675",
"(  c #47537B",
")  c #4A547B",
"_  c #4D5A7C",
"`  c #525E7E",
"'  c #595F79",
"]  c #5F6062",
"[  c #536069",
"{  c #5E616A",
"}  c #5C6473",
"|  c #57607D",
" . c #5A627E",
".. c #586773",
"X. c #6B696C",
"o. c #636B75",
"O. c #646B7B",
"+. c #667177",
"@. c #797478",
"#. c #72757A",
"$. c #A1673F",
"%. c #495680",
"&. c #4E5A82",
"*. c #545E83",
"=. c #566484",
"-. c #5B6585",
";. c #5F6887",
":. c #5B658D",
">. c #5C6A8C",
",. c #55638A",
"<. c #686F82",
"1. c #646B83",
"2. c #6E7882",
"3. c #6C7481",
"4. c #737A83",
"5. c #737C8A",
"6. c #6D7395",
"7. c #787995",
"8. c #72719B",
"9. c #837E82",
"0. c #7B8086",
"q. c #7D838B",
"w. c #7F8794",
"e. c #868487",
"r. c #83858C",
"t. c #8C8C8E",
"y. c #858B93",
"u. c #8C8C93",
"i. c #8C8F98",
"p. c #9A9697",
"a. c #9C969A",
"s. c #9E989C",
"d. c #929395",
"f. c #8A8FA2",
"g. c #8A92AB",
"h. c #9797A3",
"j. c #959CA3",
"k. c #989FA9",
"l. c #959AAE",
"z. c #9498B1",
"x. c #97A0A6",
"c. c #A4A3A9",
"v. c #A8A6A9",
"b. c #A7A9AE",
"n. c #AEACAF",
"m. c #A5A3A6",
"M. c #A4A5B3",
"N. c #A6A9B2",
"B. c #A6ABBB",
"V. c #ADABBA",
"C. c #AEB2BB",
"Z. c #B0B4BF",
"A. c #B3B3B5",
"S. c #B1B6C1",
"D. c #B9B7C2",
"F. c #BAB9C4",
"G. c #B7BAC9",
"H. c #BCBECB",
"J. c #B5BAC0",
"K. c #B3B4D3",
"L. c #C1C1CD",
"P. c #C6C8D4",
"I. c #C9CAD5",
"U. c #CBCDDB",
"Y. c #C5C7D3",
"T. c #D3D6DD",
"R. c #C7C8E4",
"E. c #C2C3E2",
"W. c #DBDDE3",
"Q. c #DEE1E3",
"!. c #DEE1E8",
"~. c #E1E2E3",
"^. c #E4E5EB",
"/. c #EEEEF6",
"(. c #F0EFF5",
"). c #EFF0F5",
"_. c #F4F4F6",
"`. c #F6F6F6",
"'. c gray97",
"]. c #F6F7F5",
"[. c #F2F1F6",
"{. c #F8F6F7",
"}. c #F6F8F7",
"|. c #F4F3F8",
" X c #F4F3F9",
".X c #F7F7F9",
"XX c #F5F4FA",
"oX c #F3F3F8",
"OX c #F7F9F8",
"+X c #F8F8F9",
/* pixels */
": : : : : : : : : : : : : : : : : : : : : : : : : : : : : : : : : : : : : : : : : : : : : : : : ",
": : : : : : : : : : : : : : : : : : : : : : : : : : : : : : : : : : : : : : : : : : : : : : : : ",
": : : : : : : : : : : : : : : : : : : : : : : : : : : : : : : : : : : : : : : : : : : : : : : : ",
": : : : : : : : : : : : : : : : : : : : : : : : : : : : : : : : : : : : : : : : : : : : : : : : ",
": : : : : : : : : : : : : : : : : : : : : : : : : : : : : : : : : : : : : : : : : : : : : : : : ",
": : : : : : : : : : : : : : : : : : : : : : : : : : : : : : : : : : : : : : : : : : : : : : : : ",
": : : : : : : : : : : : : : : : : : : : : : : : : : : : : : : : : : : : : : : : : : : : : : : : ",
": : : : : : : : : : : : : : : : : : : : : : : : : : : : : : : : : : : : : : : : : : : : : : : : ",
": : : : : : : : : : : : : : : : : : : : : : : : : : : : : : : : : : : : : : : : : : : : : : : : ",
": : : : : : : : : : : : : : : : : : : : : : : : : : : : : : : : : : : : : : : : : : : : : : : : ",
": : : : : : : : : : : : : : : : : : : : : : : : : : : : : : : : : : : : : : : : : : : : : : : : ",
": : : : : : : : : : : : : : : : : : : : : : : : : : : : : : : : : : : : : : : : : : : : : : : : ",
": : : : : : : : : : : : : : : : : : : : : : : : : : : : : : : : : : : : : : : : : : : : : : : : ",
": : : : : : : : : : : : : : : : : : : : : : : : : : : : : : : : : : : : : : : : : : : : : : : : ",
": : : : : : : : : : : : : : : : : : : : : : : : : : : : : ; : : : : : : : : : : : : : : : : : : ",
": : : : : : : : : : : : : ; ; ; ; ; ; ; ; ; ; ; ; ; ; : ; 9 ; : : : : : : : : : : : : : : : : : ",
": : : : : : : : : : ; < M F.F.F.F.F.F.F.F.F.F.F.F.D.h.e a 0 5 : : : : : : : : : : : : : : : : : ",
": : : : ; ; * 3 & v V.H.+X'.'.OX'.'.'.'.'.'.'.'.XX'.W.W O.8.7.x = , * * * * * ; ; : : : : : : : ",
": : : * n } 1.G.Y.F.4.x.'.'.'.'.'.'.'.'.'.'.'.'.'.'.~.E L G B M./ S A b b b n n j 6 3 : : : : : ",
": : ; T W.[. X[.[.S.[ x.'.'.'.'.'.'.'.'.'.'.'.'.'.'.Q.I H G G 4.| / _ _ _ ` =.=.=.=.=.9 : : : : ",
": : % ;. X[.[.[./.Z.[ j.'.'.'.XX'.'.'.'.'.'.'.'.}.'.W.L G L G 4.U.I.U.U.Q Q { <.<.5.g.~ * : : : ",
": : % -. X[.[.[.[.Z.W j.'.'.'.'.'.'.'.+X'.'.'.'.'.XX~.H G E H 4./.).[.[.[.[.[.[.[.[.'.W.g : : : ",
": : % -. X X[.[.[.C.W j.'.'.'.'.'.'.'.'.'.'.'.'.'.'.Q.L G G E 4./.[.[.[.[.[.[.[.[.[.'.XXc : : : ",
": ; 9 ;.XX[.[.[./.S...5.XX+XXXXX(. XXXXXXX XoXXXXX XW.} V G H 5./.[.[.[.[.[.[.[.[.[.'.'.c : : : ",
": ; 8 ;.[.[.[.[./.S.H.[.F.P ../.3.E E E R w.B.R E R P C.} H G 0.[.[.[.[.oX'.'.'.'.'.'.'.c : : : ",
": ; 8 -. X|.[.[.)./.[./.+.G C.T.G H H H H q.N.G L L H L F.o.I 5.f.K.E.E.R.W.W.W.W.Q.^.P.q : : : ",
": ; 6 -.^.!.U.g.B./.[.C.G I W.k.G G H G G q.N.G H H G G y.W.2.y. ./ _ _ *.` / / ^ / >.:.5 : : : ",
": ; 8 T :.( ( ( ^ U. X/.J.F./.o.N B N N N 0.M.N B V V V V o.z.W.` D T T ^ ) ) =.>.>.>.;.7 : : : ",
": ; 8 i X.( %.) ( *.l.U.I.I.L.r.r.y.r.r.r.c.M.r.u.i.i.i.u.'  .V.^ ~ ~ ~ ^ ( ( &.*.,.6.! % : : : ",
": ; 6 w $.b b b l k s 6 5 5 & #.b.y.o 3 3 & F N.b.J o o X m 5 - 9 9 r t t l z n A Z C 6 X : : : ",
": ; % $ 1 3 6 5 3 % o   o X X 4 d y   . .   ; u u >       p o & 3 & X % . . % & 5 k 9 9 % : : : ",
": : O 2 X % & % . ; Y u.]   . . & .                   o .   o % & %   > X.d.Y   & 6 5 5 ; : : : ",
": : : * .     #   9.v.c.n.e..                                     #   t.m.v.A.U o 2 & ; : : : : ",
": : : : ; O O o   X.a.a.a.U   . O O O O O O O O O O O O O O O O . o   @.s.p.s.F   X + : : : : : ",
": : : : : : : ; + O K Y h o + ; : : : : : : : : : : : : : : : : : ; + o Y Y f X + : : : : : : : ",
": : : : : : : : : + O O O ; : : : : : : : : : : : : : : : : : : : : : + O O O @ : : : : : : : : ",
": : : : : : : : : : : : : : : : : : : : : : : : : : : : : : : : : : : : : : : : : : : : : : : : ",
": : : : : : : : : : : : : : : : : : : : : : : : : : : : : : : : : : : : : : : : : : : : : : : : ",
": : : : : : : : : : : : : : : : : : : : : : : : : : : : : : : : : : : : : : : : : : : : : : : : ",
": : : : : : : : : : : : : : : : : : : : : : : : : : : : : : : : : : : : : : : : : : : : : : : : ",
": : : : : : : : : : : : : : : : : : : : : : : : : : : : : : : : : : : : : : : : : : : : : : : : ",
": : : : : : : : : : : : : : : : : : : : : : : : : : : : : : : : : : : : : : : : : : : : : : : : ",
": : : : : : : : : : : : : : : : : : : : : : : : : : : : : : : : : : : : : : : : : : : : : : : : ",
": : : : : : : : : : : : : : : : : : : : : : : : : : : : : : : : : : : : : : : : : : : : : : : : ",
": : : : : : : : : : : : : : : : : : : : : : : : : : : : : : : : : : : : : : : : : : : : : : : : ",
": : : : : : : : : : : : : : : : : : : : : : : : : : : : : : : : : : : : : : : : : : : : : : : : ",
": : : : : : : : : : : : : : : : : : : : : : : : : : : : : : : : : : : : : : : : : : : : : : : : ",
": : : : : : : : : : : : : : : : : : : : : : : : : : : : : : : : : : : : : : : : : : : : : : : : "
};
