/* XPM */
static const char *Ym9uKzM_[] = {
/* columns rows colors chars-per-pixel */
"48 48 151 2 ",
"   c #020205",
".  c #05040A",
"X  c #08070D",
"o  c #0A090F",
"O  c #030212",
"+  c #0A0710",
"@  c #070A13",
"#  c #0D0B13",
"$  c #050119",
"%  c #0E0D19",
"&  c #110E17",
"*  c #110E1B",
"=  c #0D1114",
"-  c #0E161D",
";  c #0F181F",
":  c #191313",
">  c #13111E",
",  c #250101",
"<  c #130B22",
"1  c #0C1623",
"2  c #0E1B24",
"3  c #0F1A2C",
"4  c #161522",
"5  c #191625",
"6  c #101A23",
"7  c #1B1926",
"8  c #191128",
"9  c #141E2A",
"0  c #1D1B2A",
"q  c #191530",
"w  c #111E31",
"e  c #1D103E",
"r  c #201D30",
"t  c #21143F",
"y  c #231C3D",
"u  c #16222E",
"i  c #1A232D",
"p  c #152233",
"a  c #1A2633",
"s  c #1E2B35",
"d  c #142338",
"f  c #232329",
"g  c #242233",
"h  c #242E36",
"j  c #2A2A34",
"k  c #282538",
"l  c #212F3B",
"z  c #2C2C3B",
"x  c #233139",
"c  c #2E303C",
"v  c #32323C",
"b  c #221741",
"n  c #221940",
"m  c #322F44",
"M  c #243342",
"N  c #2F3742",
"B  c #283847",
"V  c #25344C",
"C  c #343643",
"Z  c #3E3D46",
"A  c #312855",
"S  c #2A3B59",
"D  c #3E4347",
"F  c #3E434B",
"G  c #2E4056",
"H  c #3C4250",
"J  c #424451",
"K  c #424A54",
"L  c #434E5A",
"P  c #4C4E5A",
"I  c #4F515E",
"U  c #465665",
"Y  c #525565",
"T  c #555867",
"R  c #5E5C67",
"E  c #495772",
"W  c #5D6067",
"Q  c #6C7073",
"!  c #7D767D",
"~  c #CF1611",
"^  c #E4231A",
"/  c #E72B22",
"(  c #EB2F26",
")  c #EA342A",
"_  c #83767D",
"`  c #FB5346",
"'  c #7B7881",
"]  c #7F7D88",
"[  c #1127D3",
"{  c #1830DA",
"}  c #1E3AE4",
"|  c #203CE6",
" . c #2745E5",
".. c #2745EA",
"X. c #456EFA",
"o. c #808185",
"O. c #8C9292",
"+. c #9E979E",
"@. c #949A9A",
"#. c #999F9F",
"$. c #9CA2A2",
"%. c #938FED",
"&. c #938EF2",
"*. c #AFB0E6",
"=. c #ADABF2",
"-. c #B2AEF2",
";. c #B7B5F4",
":. c #C1BFF0",
">. c #D6CDD2",
",. c #CCCBF7",
"<. c #C8C6F8",
"1. c #CDCBF9",
"2. c #D1CEF9",
"3. c #D4D6F6",
"4. c #DCDEF6",
"5. c #D5D3FA",
"6. c #D9D7FD",
"7. c #DCDBFA",
"8. c #E0DDFC",
"9. c #DAE0E0",
"0. c #DDE1F7",
"q. c #DFE1F8",
"w. c #E5E7F6",
"e. c #E5E3FA",
"r. c #E8E6FC",
"t. c #EDEFFC",
"y. c #EEEDFC",
"u. c #EBEBFB",
"i. c #F0EFFD",
"p. c #EEF0FC",
"a. c #F0F6F6",
"s. c #F3F3FB",
"d. c #F1F4FB",
"f. c #F0F3FC",
"g. c #F2F2FC",
"h. c #F3F3FD",
"j. c #F1F0FD",
"k. c #F2F5FC",
"l. c #F3F6FD",
"z. c #F1F4FD",
"x. c #F4F4FC",
"c. c #F5F5FD",
"v. c #F4F4FC",
"b. c #F8F7FD",
"n. c #F7F8FD",
"m. c #FAFAFD",
"M. c #FBFCFE",
"N. c #FDFDFD",
"B. c #FDFDFF",
"V. c #FEFEFF",
"C. c #FAF9FE",
/* pixels */
": : : : : : : : : : : : : : : : : : : : : : : : : : : : : : : : : : : : : : : : : : : : : : : : ",
": : : : : : : : : : : : : : : : : : : : : : : : : : : : : : : : : : : : : : : : : : : : : : : : ",
": : : : : : : : : : : : : : : : : : : : : : : : : : : : : : : : : : : : : : : : : : : : : : : : ",
": : : : : : : : : : : : : : : : : : : : : : : : : : : : : : : : : : : : : : : : : : : : : : : : ",
": : : : : : : : : : : : : : : : : : : : : : : : : : : : : : : : : : : : : : : : : : : : : : : : ",
": : : : : : : : : : : : : : : : : : : : : : : : : : : : : : : : : : : : : : : : : : : : : : : : ",
": : : : : : : : : : : : : : : : : : : : : : : : : : : : : : : : : : : : : : : : : : : : : : : : ",
": : : : : : : : : : : : : : : : : : : : : : : : : : : : : : : : : : : : : : : : : : : : : : : : ",
": : : : : : : : : : : : : : : : : : : : : : : : : : : : : : : : : : : : : : : : : : : : : : : : ",
": : : : : : : : : : : : : : : : : : : : : : : : : : : : : : : : : : : : : : : : : : : : : : : : ",
": : : : : : : : : : : : : : : : : : : : : : : : : : : : : : : : : : : : : : : : : : : : : : : : ",
": : : : : : : : : : : : : : : : : : : : : : : : : : : : : : : : : : : : : : : : : : : : : : : : ",
": : : : : : : : : : : : : : : : : : : : : : : : : : : : : : : : : : : : : : : : : : : : : : : : ",
": : : : : : : : : : : : : : : : : : : : : : : : : : : : : : : : : : : : : : : : : : : : : : : : ",
": : : : : : : : : : : : : : : : : : : : : : , , : : : : : : : : : : : : : : : : : : : : : : : : ",
": : : : : : : : : : : : : : : : : n b b t ` ) / e t : : : : : : : : : : : : : : : : : : : : : : ",
": : : : : : : : : : : : : : : n N.M.x.g.y.) ( / e.s.z.g.x.b :   : : : : : : : : : : : : : : : : ",
": : : : : : : : : : : : : b N.5.1 N.x.t.t.~ ^ ^ e.z.z.g.D > g.# b : : : : : : : : : : : : : : : ",
": : : : : : : :       m g e.V x 2 N.z.y.u.Z 7 7 7.z.z.g.K F E E -.4 0 0 0 0 $       : : : : : : ",
": : : : :   k g g g g g 0 e.h x 9 N.x.y.u.Z v v 4.g.x.g.K F L E -.4 0 0 0 0 0 0 0 0 . : : : : : ",
": : : : :   z g g g g 0 7 4.B G 6 N.s.g.t.[ } } e.t.x.g.K F F F =..   # 7 0 0 0 0 0 . : : : : : ",
": : : : :   g 7 0 0 7 7 5 q.x M p N.g.p.y.{ | } e.z.z.g.F F K F =.. > > > > %   * * A a.: : : : ",
": : : : q 9.k 7 0 7 7 5 5 0.B x 2 M.t.t.u. .....e.s.x.g.F F L F =.. > > > > > > 4 * % a.$ : : : ",
": : : : q $.k 7 5 7 7 5 5 0.s s u N.b.x.x.X.} } g.m.m.w.F F D K =.. > > > > > > 4 * . a.y : : : ",
": : : : q $.k 7 4 5 5 4 4 4.l 1 g.d a s a S 3.1 a a u w m.h F F -.. 5 4 5 7 7 0 r * X a.y : : : ",
": : : : q #.k 4 4 5 4 5 4 3.1 t.m.l i a a V 4.- a i u M 3 t.N U -..     X # # * > > . a.y : : : ",
": : : : q #.g 4 5 4 4 4 4 *.i.4.9 - 6 - ; V e.= ; ; - - M w u.N.-.# * > > > > * > >   a.y : : : ",
": : : : q @.z 0 0 0 0 0 > g.u.e.1.<.<.1.,.1.r.e.e.h.n.x.r.x.4.k m.# > * % * > > > >   C y : : : ",
": : : : q @.. . X + + X . r.r.2.r.e.e.u.u.u.r.e.e.u.r.r.r.r.:.. e.. . X + # * * & * @ Q y : : : ",
": : : : q $.      . . . . 7.4.;.5.5.5.8.8.4.7.5.5.4.4.7.7.7.7.6.7.7.    .     . .   = O.< : : : ",
": : : : 8 _           ! P P +.%.5.5.5.6.5.5.5.5.5.5.5.5.5.5.5.5.5.j ' P P ]       . f Y : : : : ",
": : : :   >.c     h T # I T # z R 5.5.5.5.5.5.5.5.5.5.5.5.5.2.&.Y   # F I . c     . o.: : : : : ",
": : : : :   $ j c T # - v z o O z F F F F J J J J J J J J J J J T # z c j # O z c H K : : : : : ",
": : : : : : : : :     # W X f :                                     # Z o f :       : : : : : : ",
": : : : : : : : : : : :     : : : : : : : : : : : : : : : : : : : : :     : : : : : : : : : : : ",
": : : : : : : : : : : : : : : : : : : : : : : : : : : : : : : : : : : : : : : : : : : : : : : : ",
": : : : : : : : : : : : : : : : : : : : : : : : : : : : : : : : : : : : : : : : : : : : : : : : ",
": : : : : : : : : : : : : : : : : : : : : : : : : : : : : : : : : : : : : : : : : : : : : : : : ",
": : : : : : : : : : : : : : : : : : : : : : : : : : : : : : : : : : : : : : : : : : : : : : : : ",
": : : : : : : : : : : : : : : : : : : : : : : : : : : : : : : : : : : : : : : : : : : : : : : : ",
": : : : : : : : : : : : : : : : : : : : : : : : : : : : : : : : : : : : : : : : : : : : : : : : ",
": : : : : : : : : : : : : : : : : : : : : : : : : : : : : : : : : : : : : : : : : : : : : : : : ",
": : : : : : : : : : : : : : : : : : : : : : : : : : : : : : : : : : : : : : : : : : : : : : : : ",
": : : : : : : : : : : : : : : : : : : : : : : : : : : : : : : : : : : : : : : : : : : : : : : : ",
": : : : : : : : : : : : : : : : : : : : : : : : : : : : : : : : : : : : : : : : : : : : : : : : ",
": : : : : : : : : : : : : : : : : : : : : : : : : : : : : : : : : : : : : : : : : : : : : : : : ",
": : : : : : : : : : : : : : : : : : : : : : : : : : : : : : : : : : : : : : : : : : : : : : : : ",
": : : : : : : : : : : : : : : : : : : : : : : : : : : : : : : : : : : : : : : : : : : : : : : : "
};
