/* XPM */
static const char *Ym9uKzQ_[] = {
/* columns rows colors chars-per-pixel */
"48 48 156 2 ",
"   c #020205",
".  c #05030A",
"X  c #08060C",
"o  c #09090D",
"O  c #050217",
"+  c #0D0711",
"@  c #060D14",
"#  c #0C0B13",
"$  c #05021A",
"%  c #0B0718",
"&  c #0E0C19",
"*  c #100D16",
"=  c #110E1B",
"-  c #0D161D",
";  c #0F181F",
":  c #171312",
">  c #191313",
",  c #13111D",
"<  c #0C1623",
"1  c #0F1922",
"2  c #0C1828",
"3  c #161422",
"4  c #191725",
"5  c #121B25",
"6  c #1A1926",
"7  c #141E2C",
"8  c #1C1A29",
"9  c #010134",
"0  c #1F0F3E",
"q  c #191530",
"w  c #121F32",
"e  c #211E2E",
"r  c #221F30",
"t  c #241D3F",
"y  c #16222D",
"u  c #1A222D",
"i  c #172530",
"p  c #192532",
"a  c #142338",
"s  c #1E2D3B",
"d  c #222129",
"f  c #242232",
"g  c #252934",
"h  c #2C2930",
"j  c #2A273A",
"k  c #2D2C3B",
"l  c #2E303C",
"z  c #32333D",
"x  c #221641",
"c  c #251E41",
"v  c #242F41",
"b  c #243142",
"n  c #2C3742",
"m  c #293A44",
"M  c #2D3E4A",
"N  c #3C3B43",
"B  c #303E4B",
"V  c #3A3C48",
"C  c #343642",
"Z  c #3E3469",
"A  c #2F414D",
"S  c #3F414E",
"D  c #314352",
"F  c #364957",
"G  c #364B5E",
"H  c #374C61",
"J  c #3B5063",
"K  c #3F586E",
"L  c #3C5071",
"P  c #3F5678",
"I  c #40424F",
"U  c #4F494D",
"Y  c #424451",
"T  c #484651",
"R  c #464855",
"E  c #4B4D5A",
"W  c #4E505D",
"Q  c #56555D",
"!  c #60565E",
"~  c #555867",
"^  c #575A6A",
"/  c #455C7E",
"(  c #496479",
")  c #686D70",
"_  c #6D7373",
"`  c #707676",
"'  c #75767A",
"]  c #79767F",
"[  c #74797C",
"{  c #E41F17",
"}  c #E5231C",
"|  c #E72E24",
" . c #ED3B31",
".. c #F64C3F",
"X. c #FA5245",
"o. c #797D80",
"O. c #1127D3",
"+. c #1934E4",
"@. c #1634E4",
"#. c #213DE6",
"$. c #2340E6",
"%. c #3556EF",
"&. c #385CF2",
"*. c #7E8283",
"=. c #80858B",
"-. c #858B8B",
";. c #95969B",
":. c #9F9AA0",
">. c #9793F1",
",. c #A09DE4",
"<. c #ABACEF",
"1. c #AFACF1",
"2. c #B4B2F3",
"3. c #B8B6F5",
"4. c #B8B9F2",
"5. c #C1BAC1",
"6. c #C0BCF7",
"7. c #C5C6F3",
"8. c #CBC6F3",
"9. c #C7C9F2",
"0. c #C9CCF4",
"q. c #C6C3F8",
"w. c #CAC7F9",
"e. c #CDCBF9",
"r. c #DCDCF5",
"t. c #D5D3FA",
"y. c #DAD6FA",
"u. c #DCDBFA",
"i. c #E0DDFC",
"p. c #E5EBEB",
"a. c #E5E4FA",
"s. c #E9E6FC",
"d. c #E7E8FA",
"f. c #EBEAFC",
"g. c #EFF8F7",
"h. c #F0F6F6",
"j. c #F1F1FB",
"k. c #F3F3FB",
"l. c #F2F5FA",
"z. c #F1F4FB",
"x. c #F2F2FC",
"c. c #F2F5FC",
"v. c #F1F6FC",
"b. c #F4F4FC",
"n. c #F5F5FD",
"m. c #F5F4FC",
"M. c #F6F7FC",
"N. c #F5F6FC",
"B. c #F8F7FF",
"V. c #F8F7FD",
"C. c #F7F8FD",
"Z. c #FAF9FE",
"A. c #F9F9FE",
"S. c #FCFDFF",
"D. c #FDFCFD",
"F. c #FAF9FE",
/* pixels */
"> > > > > > > > > > > > > > > > > > > > > > > > > > > > > > > > > > > > > > > > > > > > > > > > ",
"> > > > > > > > > > > > > > > > > > > > > > > > > > > > > > > > > > > > > > > > > > > > > > > > ",
"> > > > > > > > > > > > > > > > > > > > > > > > > > > > > > > > > > > > > > > > > > > > > > > > ",
"> > > > > > > > > > > > > > > > > > > > > > > > > > > > > > > > > > > > > > > > > > > > > > > > ",
"> > > > > > > > > > > > > > > > > > > > > > > > > > > > > > > > > > > > > > > > > > > > > > > > ",
"> > > > > > > > > > > > > > > > > > > > > > > > > > > > > > > > > > > > > > > > > > > > > > > > ",
"> > > > > > > > > > > > > > > > > > > > > > > > > > > > > > > > > > > > > > > > > > > > > > > > ",
"> > > > > > > > > > > > > > > > > > > > > > > > > > > > > > > > > > > > > > > > > > > > > > > > ",
"> > > > > > > > > > > > > > > > > > > > > > > > > > > > > > > > > > > > > > > > > > > > > > > > ",
"> > > > > > > > > > > > > > > > > > > > > > > > > > > > > > > > > > > > > > > > > > > > > > > > ",
"> > > > > > > > > > > > > > > > > > > > > > > > > > > > > > > > > > > > > > > > > > > > > > > > ",
"> > > > > > > > > > > > > > > > > > > > > > > > > > > > > > > > > > > > > > > > > > > > > > > > ",
"> > > > > > > > > > > > > > > > > > > > > > > > > > > > > > > > > > > > > > > > > > > > > > > > ",
"> > > > > > > > > > > > > > > > > > > > > > > > > > > > > > > > > > > > > > > > > > > > > > > > ",
"> > > > > > > > > > > > > > > > > > > > > > > > 9 9 > > > > > > > > > > > > > > > > > > > > > > ",
"> > > > > > > > > > > > > > > > > > > > > > x x &.$.@.0 x x x > > > > > > > > > > > > > > > > > ",
"> > > > > > > > > > > > > > : >   . x D.D.M.x.f.%.#.+.d.c.c.c.M.x > > > > > > > > > > > > > > > ",
"> > > > > > > > > > > > > > > x k V.- m F.j.j.d.#.+.O.d.c.l.l.5 1.V.x > > > > > > > > > > > > > ",
"> > > > > >       O r r e e e 2.P / M D F.x.f.r.h 6 , d.l.l.c.y - 7 4., 8       > > > > > > > > ",
"> > > > >   j f f f f f r e e 6.L H M G M.j.f.d.N z # d.M.M.l.i - - 0., 8 8 6 8 6 6 . > > > > > ",
"> > > > >   j f f f f e X   = 2.M M B H M.x.f.s.| } { d.x.M.M.u 5 - 0.= 6 8 8 6 8 6 . > > > > > ",
"> > > > g.Z 3 =   = 6 6 6 4 # 2.m F M D F.j.f.f. .} } d.c.M.c.i 1 1 9.= , , , , , 3 . > > > > > ",
"> > >   h.f f 6 6 6 6 6 6 4 # 2.D K m A D.x.f.d...| } d.l.x.M.i - 5 9.= , , , , , , -.c > > > > ",
"> > > q h., f 6 6 6 6 6 4 3 # 2.J m M m D.D.V.M.} } X.j.F.F.M.s , - 7.& , = , , , , *.c > > > > ",
"> > > q h.= k j j f r e 8 8 # 2.M n @ F.w i i i - C.y p p i w F.< 5 7.# , = , , , , [ c > > > > ",
"> > > q h.  3 3 3 , 3 # X . = 3.( < a.w b u i u @ F.7 i i u s d.V.2 <.# , , , , , , ' c > > > > ",
"> > > q h.  e 3 4 3 3 3 3 3 3 2.D.r.a v - ; ; ; @ F.; - - - - - s.F.,.# = , , , , = ` c > > > > ",
"> > > % ~   8 3 3 3 , , 3 6 8 F.j d.F.s.s.M.s.a.a.M.e.w.w.w.q.w.u.s.F.X 3 , 3 3 3 3 _ c > > > > ",
"> > > . @ @ * * # # # + X X X s.  8.s.d.d.s.s.d.a.d.d.s.d.u.a.s.8.s.s.X o + + + + # ) c > > > > ",
"> > >   p.  . . . . . .   . u.u.u.u.u.u.u.i.u.t.t.y.u.u.u.t.t.t.2.u.u.. . . . .   + o.t > > > > ",
"> > > > R !         T E W :.U t.t.t.t.t.t.y.t.t.t.e.t.t.t.t.t.t.w.s.E E ;.        . *.c > > > > ",
"> > > > > ^       ~   C ^ #   ~ >.t.t.t.t.t.t.t.t.e.t.t.t.t.t.g ~ # V ~ + k ]     Q 5.$ > > > > ",
"> > > > > , I S u $ o l l R d k Y Y Y Y Y Y Y Y Y Y Y S S S S 8 $ X l l u d z n g $   > > > > > ",
"> > > > > >       > #   =.# .                                   > #   N #     > > > > > > > > > ",
"> > > > > > > > > > >     > > > > > > > > > > > > > > > > > > > > >     > > > > > > > > > > > > ",
"> > > > > > > > > > > > > > > > > > > > > > > > > > > > > > > > > > > > > > > > > > > > > > > > ",
"> > > > > > > > > > > > > > > > > > > > > > > > > > > > > > > > > > > > > > > > > > > > > > > > ",
"> > > > > > > > > > > > > > > > > > > > > > > > > > > > > > > > > > > > > > > > > > > > > > > > ",
"> > > > > > > > > > > > > > > > > > > > > > > > > > > > > > > > > > > > > > > > > > > > > > > > ",
"> > > > > > > > > > > > > > > > > > > > > > > > > > > > > > > > > > > > > > > > > > > > > > > > ",
"> > > > > > > > > > > > > > > > > > > > > > > > > > > > > > > > > > > > > > > > > > > > > > > > ",
"> > > > > > > > > > > > > > > > > > > > > > > > > > > > > > > > > > > > > > > > > > > > > > > > ",
"> > > > > > > > > > > > > > > > > > > > > > > > > > > > > > > > > > > > > > > > > > > > > > > > ",
"> > > > > > > > > > > > > > > > > > > > > > > > > > > > > > > > > > > > > > > > > > > > > > > > ",
"> > > > > > > > > > > > > > > > > > > > > > > > > > > > > > > > > > > > > > > > > > > > > > > > ",
"> > > > > > > > > > > > > > > > > > > > > > > > > > > > > > > > > > > > > > > > > > > > > > > > ",
"> > > > > > > > > > > > > > > > > > > > > > > > > > > > > > > > > > > > > > > > > > > > > > > > ",
"> > > > > > > > > > > > > > > > > > > > > > > > > > > > > > > > > > > > > > > > > > > > > > > > "
};
