/* XPM */
static const char *c29s[] = {
/* columns rows colors chars-per-pixel */
"48 48 123 2 ",
"   c #2D1C26",
".  c #2F1D29",
"X  c #301F27",
"o  c #321F2A",
"O  c #34202B",
"+  c #3A232E",
"@  c #3E2530",
"#  c #3F2832",
"$  c #412631",
"%  c #452933",
"&  c #4B2B36",
"*  c #4D2D38",
"=  c #502F36",
"-  c #522F39",
";  c #4F3036",
":  c #4F3038",
">  c #523037",
",  c #55323A",
"<  c #58333B",
"1  c #5B333B",
"2  c #5D363B",
"3  c #5B333C",
"4  c #59343C",
"5  c #5A353C",
"6  c #5A353D",
"7  c #5B363D",
"8  c #5C343C",
"9  c #5C343D",
"0  c #5D353D",
"q  c #5E353D",
"w  c #5D353E",
"e  c #5C343F",
"r  c #5E363E",
"t  c #5F363E",
"y  c #5F373F",
"u  c #5B343C",
"i  c #60373D",
"p  c #60353E",
"a  c #60373F",
"s  c #62383C",
"d  c #62393D",
"f  c #61383E",
"g  c #63383F",
"h  c #62393F",
"j  c #643A3E",
"k  c #603640",
"l  c #603840",
"z  c #613840",
"x  c #633841",
"c  c #623941",
"v  c #623842",
"b  c #643940",
"n  c #653A41",
"m  c #643B41",
"M  c #643942",
"N  c #663842",
"B  c #653A43",
"V  c #663B42",
"C  c #673C43",
"Z  c #663B44",
"A  c #643941",
"S  c #693A42",
"D  c #683B42",
"F  c #6A3B43",
"G  c #693C41",
"H  c #6A3D40",
"J  c #6B3D40",
"K  c #693C43",
"L  c #6B3C42",
"P  c #6A3D42",
"I  c #6C3E41",
"U  c #6D3C42",
"Y  c #6C3D43",
"T  c #6D3F42",
"R  c #6F3E42",
"E  c #6A3D44",
"W  c #6B3E45",
"Q  c #6C3D45",
"!  c #6D3E44",
"~  c #6F3E44",
"^  c #6E3F45",
"/  c #6E3F47",
"(  c #6D3D44",
")  c #703F43",
"_  c #713E45",
"`  c #703F45",
"'  c #703E47",
"]  c #723F46",
"[  c #703F45",
"{  c #713F48",
"}  c #723F48",
"|  c #6D4045",
" . c #6F4046",
".. c #714043",
"X. c #714044",
"o. c #724144",
"O. c #734045",
"+. c #724145",
"@. c #704245",
"#. c #734245",
"$. c #714046",
"%. c #734047",
"&. c #724147",
"*. c #734246",
"=. c #744245",
"-. c #754046",
";. c #744146",
":. c #764147",
">. c #754346",
",. c #754247",
"<. c #734146",
"1. c #734049",
"2. c #754048",
"3. c #744148",
"4. c #754249",
"5. c #774248",
"6. c #764348",
"7. c #76434A",
"8. c #774449",
"9. c #754248",
"0. c #794248",
"q. c #784349",
"w. c #78434B",
/* pixels */
"  O + & & & o o E +.` ) ` +.V & & O O o $ & & $ . % 7.` ` ` ` 7., * $ o o O % & & O . 8 +.) +.` ",
". & E I h & % o P +.` ` ` +.P % O O . 8 P ^ < & + $ ,.` I ` ` ,.< @ O o @ P P F & & o 8 7.` ` ` ",
"* P +.+.` z & % = ^ ,.+.,.h @ + o O 8 ` ` +.P < % & 4 7.+.+.,.* + O O % F +.+.+.V * % : V 7.1.,.",
"8 7.) ` +.` & & % = < 3 , $ o O O O 7.+.` ` ,.8 % & & , < 8 = O O O o * 0.` +.` ,.* & % = < 8 , ",
"* P +.+.^ 4 8 8 8 8 * $ O o O O O O 8 ` { ,.V 4 8 8 8 < % $ O O O O O $ V +.+.+.4 8 8 8 8 = $ + ",
"O > V 8 , < +.+.+.,.V $ o O O o o o @ 8 V 8 , V 7.+.+.` , O O O O o o O & V z < , ` +.+.7.F & o ",
"O + % + + 7.+.` ^ ` 0.* o o O + + + o $ $ . < 7.` ` ` ^ +.O O o + + + O O $ $ o +.+.` ^ ` ,.4 . ",
"$ O O o + V F +.+.+.P % o O + * * * + o o . = P ^ +.+.` h O O O % * * % O O o O h P ^ +.` ^ = o ",
"* $ o O O o & P E ^ $ o o $ > * & & * + O O O + , ^ P V o O o & > * & * % O O O o $ V P ^ * . O ",
"& & & * & O o o O O O O o & ,.P & & * * & * @ o O o O O O O o V 7.4 & * * & * & O O o O O O O o ",
"+.2 & & * & O o & & & * $ O + , +.` ` * & & * $ o + * & & & O o % z +.+.V & * & & O o $ & & * % ",
"% * & & & & o % & & & & & $ o O + + * & * & * @ + & & & & & & + O + + $ * & & & * O $ & & & & & ",
", +.8 % & & O ^ ^ * & & * % o O o O P ^ * % * + & 7.V & & & * + o O . & { V & & * O z +., % & & ",
"@ * a I z + O % , V E ^ = o o o O O % , V I * O + & 2 E P P + o o o o + & 4 P F + O $ > h P ^ 8 ",
"o O $ * & o O o + % & & $ $ $ $ o O o + & * + o o O @ * & & $ $ $ + o o o $ * * O O o + % & & % ",
"O O o o o O O O . & * * < 4 & & @ O O o o o o O o O O + + @ & * * % + O O o o . O O O . $ = * > ",
"o o O o o o O O & I ,.,.,.P = & & O O O O O O O O O $ 8 4 * & & & * $ o O O o o o O o # V ,.7.,.",
"o o O @ + + o o ^ +.` ` ` +.Z & & O o O O O O O o + 8 7.+.* * & & * $ o O O + + + O . h ,.` ` ` ",
"O O % , > & + o E +.` ` +.+.V & % O O O O O O O o % 7.` V & & & * & @ o O $ - = * + o a +.` ` +.",
"O , ,.+.P * & O V ` ` ` ` ` a $ o O O O O O O O O $ ^ P * * = & & + o O & ,.+.` * * O 8 +.^ ` ` ",
"< 7.^ ` ` I & & & F ` ^ +., . o O O O O O O O O o o O * +.| +.@ O O o & ,.^ +.` +.* * % a +.^ ` ",
"< 7.) ` ` I & & & & * * $ O O O O O O & + o O O O O O O O O O O O O o & 7.` ` ` +.* & & & * * % ",
"$ z 7.+.P * I ^ ^ ^ , + O O O O O O O O % * + o o O O O O O O O O O o + 8 7.+.+.* P I ^ ^ 4 $ O ",
"O % , * % I ` ` ` +.^ & o o O O o O O O + + O O O O O O O O O O o o o o + , = $ F ` ` ` +.` = . ",
"+ O + O @ 7.` ` ) ` 0.* o o + % % % o O O O O O O O O O O O O O $ % & + o + + O 7.,.` ` ` 7.8 . ",
"% +     O ; ,.,.7.8.< + o O $ & * * $ O o o O O O O O O O O O + & * * & + o o o & < +.,.7.h $ o ",
"& * > = & . > > = > + . o % V 8 & & & $ $ $ + o O O o o o o O 4 h > & & & @ @ @ . + * = > $ . o ",
"< V 7.,.^ % .   + + + @ O $ a V 4 8 8 * * * % + o O @ @ + + o > V a 4 8 , * * & @ O . O + + + + ",
"I +.` ` +.` o + & * * * % O o & h z C * & & * $ O @ * * * * + o @ , z V 8 & & & * O O % * * * & ",
"< ,.` ` +.P O , = * & & * % o o o o * = * & * $ $ , : & & & * + o o . + , = & & * O * , * & & * ",
", ` ` ` ` j O E ` , * * * $ o O O O E ` , : * + % ` F * = * & + O O . & +.F * * & O h +.8 * * * ",
". = +.` h . o o % F ` +.= o O O O O o % F ,.& o o O = ..^ ` + o O O O o + > +.I O O O $ z +.| 8 ",
"O O O + O O O o O O o o $ & & % o O O O O O O O O O O O O O & & * + o O O o O O O O O O O O o + ",
"o O O O O O O O . 8 P P ^ a & & & O O O O O O O O O + ^ P P ^ * & & @ o O O O O O O O . = ^ P P ",
"o O O O o o O o z ^ +.+.+.^ a & & O O O o o o O o # E +.+.+.+.^ - & $ O O O o o o O o , ^ +.+.` ",
"O o o $ % $ o o I ` ` ) ` +.F & & O O . @ $ % @ . % 7.+.` ` ` +., * $ o o o % $ % O o a 7.` ` ` ",
". $ 8 V 8 & $ O I +.` ` ` +.P & + O . , z V , % O $ ,.` ` ` ` ,.< $ + o + 8 h h & $ o k 7.^ ^ ` ",
"% V 7.+.^ < * $ < ^ +.+.,.F & + o O = ` +.7.V , % % V +.+.+.,.< % O o + 8 ,.+.+.8 * $ = P +.+.,.",
"8 7.` ` +.` & & % 8 z z a % . o O O 7.+.+.` ,.8 & & & a z z 4 O o O o * 0.` ` ` ,.* & % , h z z ",
"> ^ +.` ` h , , , , & % + o O O O O V ` ` +.E 8 , , , = & $ o o O O o % ^ +.+.` V , , , , * % + ",
"@ < ^ P a = +.+.+.,.8 + O o O O O O $ V E V , 8 ,.+.+.` = O O O O O o + = ^ P V * ^ +.+.,.h $ o ",
"o + & $ + 7.` ` ` ^ ,.* o O O O O O o % & o 4 ,.` ` ^ ` ` O O O O O O o O & $ o ` +.` ` ` ,.4 . ",
"@ o O o @ +.^ ` ` ) +.& X o + * * & O O O o , +.` ` ` ` ^ O O o % * * $ o O O O ^ ^ ^ ` ` +.< . ",
"* $ O o O + * ` +.,.% o o + & & & & & O o O o $ 8 7.+.I o O o % & & & * % o O O O & P +.,.= o O ",
"& & & & % o O + + + O o o & ,.V & & & & & & + o + + O + o o o V 7., % & & & & & o O + + + O o O ",
"^ 8 & * & % O o % % & & + O % 3 ^ I ^ * & * & + o O & % & & O + * V ^ ^ z & & & & O o $ & & & $ ",
"* * & & * & O $ & & * * & + o + % % = & & & * $ + % & * * * % O O $ % * = & & & * O $ & & * * & ",
"= F < % & & O V V * & % * % o o o o z V * & * + & E 8 % & & * + o o . % F 8 & & * O 8 F = & & & "
};
